<svg width="33" height="30" viewBox="0 0 33 30" fill="none" xmlns="http://www.w3.org/2000/svg">
<path d="M21.8333 23.3333C21.8333 25 24.3333 28.3333 25.1666 28.3333C27.6666 28.3333 29.8883 25.555 30.9999 23.3333C32.1116 20.555 31.8333 13.6117 28.4999 4.16666C26.0716 2.47499 23.4999 1.93332 20.9999 1.66666L19.3333 5.83332M10.1666 23.3333C10.1666 25 7.90661 28.3333 7.11327 28.3333C4.73161 28.3333 2.61661 25.555 1.55827 23.3333C0.499941 20.555 0.764941 13.6117 3.93827 4.16666C6.25161 2.47499 8.57494 1.93332 10.9999 1.66666L12.6666 5.83332" stroke="#0099FE" stroke-width="2" stroke-linecap="round" stroke-linejoin="round"/>
<path d="M10.9999 16.6667C11.9204 16.6667 12.6666 15.9205 12.6666 15C12.6666 14.0795 11.9204 13.3333 10.9999 13.3333C10.0794 13.3333 9.33325 14.0795 9.33325 15C9.33325 15.9205 10.0794 16.6667 10.9999 16.6667Z" stroke="#0099FE" stroke-width="2" stroke-linecap="round" stroke-linejoin="round"/>
<path d="M20.9999 16.6667C21.9204 16.6667 22.6666 15.9205 22.6666 15C22.6666 14.0795 21.9204 13.3333 20.9999 13.3333C20.0794 13.3333 19.3333 14.0795 19.3333 15C19.3333 15.9205 20.0794 16.6667 20.9999 16.6667Z" stroke="#0099FE" stroke-width="2" stroke-linecap="round" stroke-linejoin="round"/>
<path d="M7.66663 22.5C13.5 24.1667 18.5 24.1667 24.3333 22.5M8.49996 7.49999C14.3333 5.83333 17.6666 5.83333 23.5 7.49999H8.49996Z" stroke="#0099FE" stroke-width="2" stroke-linecap="round" stroke-linejoin="round"/>
</svg>
