<svg width="36" height="30" viewBox="0 0 36 30" fill="none" xmlns="http://www.w3.org/2000/svg">
<path d="M34.6667 1.68333C33 2.49999 31.3667 2.83166 29.6667 3.33333C27.7984 1.22499 25.0284 1.10833 22.3667 2.10499C19.705 3.10166 17.9617 5.53833 18 8.33333V9.99999C12.5917 10.1383 7.77504 7.67499 4.66671 3.33333C4.66671 3.33333 -2.30329 15.7217 11.3334 21.6667C8.21337 23.745 5.10171 25.1467 1.33337 25C6.84671 28.005 12.855 29.0383 18.0567 27.5283C24.0234 25.795 28.9267 21.3233 30.8084 14.625C31.3697 12.5878 31.6484 10.4831 31.6367 8.36999C31.6334 7.95499 34.1534 3.74999 34.6667 1.68166V1.68333Z" stroke="#0099FE" stroke-width="2" stroke-linecap="round" stroke-linejoin="round"/>
</svg>
